<?xml version="1.0" encoding="UTF-8"?>
<!DOCTYPE svg PUBLIC "-//W3C//DTD SVG 1.1//EN"  "http://www.w3.org/Graphics/SVG/1.1/DTD/svg11.dtd">
<svg xmlns="http://www.w3.org/2000/svg" version="1.1" class="railroad-diagram" width="446" height="212" viewBox="0 0 446 212">
    <g transform="translate(.5 .5)">
        <g>
            <path d="M20 21v20m10 -20v20m-10 -10h20"/>
        </g>
        <g>
            <path d="M40 31h0"/>
            <path d="M272.5 31h0"/>
            <path d="M40 31h20"/>
            <g>
                <path d="M60 31h20"/>
                <path d="M232.5 31h20"/>
                <g>
                    <path d="M80 31h0"/>
                    <path d="M167 31h0"/>
                    <text x="123.5" y="36" class="comment">
                        bitwise and
                    </text>
                </g>
                <path d="M167 31h10"/>
                <path d="M177 31h10"/>
                <g class="terminal">
                    <path d="M187 31h0"/>
                    <path d="M232.5 31h0"/>
                    <rect x="187" y="20" width="45.5" height="22" rx="10" ry="10"/>
                    <text x="209.75" y="35">
                        and
                    </text>
                </g>
            </g>
            <path d="M252.5 31h20"/>
            <path d="M40 31a10 10 0 0 1 10 10v10a10 10 0 0 0 10 10"/>
            <g>
                <path d="M60 61h20"/>
                <path d="M232.5 61h20"/>
                <g>
                    <path d="M80 61h0"/>
                    <path d="M167 61h0"/>
                    <text x="123.5" y="66" class="comment">
                        bitwise or
                    </text>
                </g>
                <path d="M167 61h10"/>
                <path d="M177 61h10"/>
                <g class="terminal">
                    <path d="M187 61h0"/>
                    <path d="M232.5 61h0"/>
                    <rect x="187" y="50" width="45.5" height="22" rx="10" ry="10"/>
                    <text x="209.75" y="65">
                        orr
                    </text>
                </g>
            </g>
            <path d="M252.5 61a10 10 0 0 0 10 -10v-10a10 10 0 0 1 10 -10"/>
            <path d="M40 31a10 10 0 0 1 10 10v40a10 10 0 0 0 10 10"/>
            <g>
                <path d="M60 91h0"/>
                <path d="M252.5 91h0"/>
                <path d="M60 91h20"/>
                <g>
                    <path d="M80 91h0"/>
                    <path d="M232.5 91h0"/>
                    <g>
                        <path d="M80 91h0"/>
                        <path d="M167 91h0"/>
                        <text x="123.5" y="96" class="comment">
                            bitwise xor
                        </text>
                    </g>
                    <path d="M167 91h10"/>
                    <path d="M177 91h10"/>
                    <g class="terminal">
                        <path d="M187 91h0"/>
                        <path d="M232.5 91h0"/>
                        <rect x="187" y="80" width="45.5" height="22" rx="10" ry="10"/>
                        <text x="209.75" y="95">
                            eor
                        </text>
                    </g>
                </g>
                <path d="M232.5 91h20"/>
                <path d="M60 91a10 10 0 0 1 10 10v10a10 10 0 0 0 10 10"/>
                <g>
                    <path d="M80 121h0"/>
                    <path d="M232.5 121h0"/>
                    <g>
                        <path d="M80 121h0"/>
                        <path d="M167 121h0"/>
                        <text x="123.5" y="126" class="comment">
                            compare B-C
                        </text>
                    </g>
                    <path d="M167 121h10"/>
                    <path d="M177 121h10"/>
                    <g class="terminal">
                        <path d="M187 121h0"/>
                        <path d="M232.5 121h0"/>
                        <rect x="187" y="110" width="45.5" height="22" rx="10" ry="10"/>
                        <text x="209.75" y="125">
                            cmp
                        </text>
                    </g>
                </g>
                <path d="M232.5 121a10 10 0 0 0 10 -10v-10a10 10 0 0 1 10 -10"/>
            </g>
            <path d="M252.5 91a10 10 0 0 0 10 -10v-40a10 10 0 0 1 10 -10"/>
            <path d="M40 31a10 10 0 0 1 10 10v100a10 10 0 0 0 10 10"/>
            <g>
                <path d="M60 151h20"/>
                <path d="M232.5 151h20"/>
                <g>
                    <path d="M80 151h0"/>
                    <path d="M167 151h0"/>
                    <text x="123.5" y="156" class="comment">
                        bitwise not
                    </text>
                </g>
                <path d="M167 151h10"/>
                <path d="M177 151h10"/>
                <g class="terminal">
                    <path d="M187 151h0"/>
                    <path d="M232.5 151h0"/>
                    <rect x="187" y="140" width="45.5" height="22" rx="10" ry="10"/>
                    <text x="209.75" y="155">
                        not
                    </text>
                </g>
            </g>
            <path d="M252.5 151a10 10 0 0 0 10 -10v-100a10 10 0 0 1 10 -10"/>
            <path d="M40 31a10 10 0 0 1 10 10v130a10 10 0 0 0 10 10"/>
            <g>
                <path d="M60 181h20"/>
                <path d="M232.5 181h20"/>
                <g>
                    <path d="M80 181h0"/>
                    <path d="M167 181h0"/>
                    <text x="123.5" y="186" class="comment">
                        rotate left
                    </text>
                </g>
                <path d="M167 181h10"/>
                <path d="M177 181h10"/>
                <g class="terminal">
                    <path d="M187 181h0"/>
                    <path d="M232.5 181h0"/>
                    <rect x="187" y="170" width="45.5" height="22" rx="10" ry="10"/>
                    <text x="209.75" y="185">
                        rol
                    </text>
                </g>
            </g>
            <path d="M252.5 181a10 10 0 0 0 10 -10v-130a10 10 0 0 1 10 -10"/>
        </g>
        <path d="M272.5 31h10"/>
        <g>
            <path d="M282.5 31h0"/>
            <path d="M327.5 31h0"/>
            <text x="305" y="36" class="comment">
                dest:
            </text>
        </g>
        <path d="M327.5 31h10"/>
        <g>
            <path d="M337.5 31h0"/>
            <path d="M406 31h0"/>
            <path d="M337.5 31h20"/>
            <g>
                <path d="M357.5 31h28.5"/>
            </g>
            <path d="M386 31h20"/>
            <path d="M337.5 31a10 10 0 0 1 10 10v0a10 10 0 0 0 10 10"/>
            <g class="terminal">
                <path d="M357.5 51h0"/>
                <path d="M386 51h0"/>
                <rect x="357.5" y="40" width="28.5" height="22" rx="10" ry="10"/>
                <text x="371.75" y="55">
                    a
                </text>
            </g>
            <path d="M386 51a10 10 0 0 0 10 -10v0a10 10 0 0 1 10 -10"/>
            <path d="M337.5 31a10 10 0 0 1 10 10v30a10 10 0 0 0 10 10"/>
            <g class="terminal">
                <path d="M357.5 81h0"/>
                <path d="M386 81h0"/>
                <rect x="357.5" y="70" width="28.5" height="22" rx="10" ry="10"/>
                <text x="371.75" y="85">
                    d
                </text>
            </g>
            <path d="M386 81a10 10 0 0 0 10 -10v-30a10 10 0 0 1 10 -10"/>
        </g>
        <path d="M 406 31 h 20 m -10 -10 v 20 m 10 -20 v 20"/>
    </g>
</svg>
