<?xml version="1.0" encoding="UTF-8"?>
<!DOCTYPE svg PUBLIC "-//W3C//DTD SVG 1.1//EN"  "http://www.w3.org/Graphics/SVG/1.1/DTD/svg11.dtd">
<svg class="railroad-diagram" width="583" height="392" viewBox="0 0 583 392"
  xmlns="http://www.w3.org/2000/svg"
  xmlns:xlink="http://www.w3.org/1999/xlink">
  <g transform="translate(.5 .5)">
    <g>
      <path d="M20 21v20m10 -20v20m-10 -10h20"></path>
    </g>
    <path d="M40 31h10"></path>
    <g class="terminal ">
      <path d="M50 31h0"></path>
      <path d="M94 31h0"></path>
      <rect x="50" y="20" width="44" height="22" rx="10" ry="10"></rect>
      <text x="72" y="35">mov</text>
    </g>
    <path d="M94 31h10"></path>
    <g>
      <path d="M104 31h0"></path>
      <path d="M543 31h0"></path>
      <path d="M104 31h20"></path>
      <g>
        <path d="M124 31h0"></path>
        <path d="M523 31h0"></path>
        <g class="comment ">
          <path d="M124 31h0"></path>
          <path d="M190 31h0"></path>
          <text x="157" y="36" class="comment">08-bit ></text>
        </g>
        <path d="M190 31h10"></path>
        <path d="M200 31h10"></path>
        <g class="comment ">
          <path d="M210 31h0"></path>
          <path d="M255 31h0"></path>
          <text x="232.5" y="36" class="comment">dest:</text>
        </g>
        <path d="M255 31h10"></path>
        <g>
          <path d="M265 31h0"></path>
          <path d="M341 31h0"></path>
          <path d="M265 31h20"></path>
          <g class="terminal ">
            <path d="M285 31h0"></path>
            <path d="M313 31h8"></path>
            <rect x="285" y="20" width="28" height="22" rx="10" ry="10"></rect>
            <text x="299" y="35">a</text>
          </g>
          <path d="M321 31h20"></path>
          <path d="M265 31a10 10 0 0 1 10 10v10a10 10 0 0 0 10 10"></path>
          <g class="terminal ">
            <path d="M285 61h0"></path>
            <path d="M313 61h8"></path>
            <rect x="285" y="50" width="28" height="22" rx="10" ry="10"></rect>
            <text x="299" y="65">b</text>
          </g>
          <path d="M321 61a10 10 0 0 0 10 -10v-10a10 10 0 0 1 10 -10"></path>
          <path d="M265 31a10 10 0 0 1 10 10v40a10 10 0 0 0 10 10"></path>
          <g class="terminal ">
            <path d="M285 91h0"></path>
            <path d="M313 91h8"></path>
            <rect x="285" y="80" width="28" height="22" rx="10" ry="10"></rect>
            <text x="299" y="95">c</text>
          </g>
          <path d="M321 91a10 10 0 0 0 10 -10v-40a10 10 0 0 1 10 -10"></path>
          <path d="M265 31a10 10 0 0 1 10 10v70a10 10 0 0 0 10 10"></path>
          <g class="terminal ">
            <path d="M285 121h0"></path>
            <path d="M313 121h8"></path>
            <rect x="285" y="110" width="28" height="22" rx="10" ry="10"></rect>
            <text x="299" y="125">d</text>
          </g>
          <path d="M321 121a10 10 0 0 0 10 -10v-70a10 10 0 0 1 10 -10"></path>
          <path d="M265 31a10 10 0 0 1 10 10v100a10 10 0 0 0 10 10"></path>
          <g class="terminal ">
            <path d="M285 151h0"></path>
            <path d="M321 151h0"></path>
            <rect x="285" y="140" width="36" height="22" rx="10" ry="10"></rect>
            <text x="303" y="155">m1</text>
          </g>
          <path d="M321 151a10 10 0 0 0 10 -10v-100a10 10 0 0 1 10 -10"></path>
          <path d="M265 31a10 10 0 0 1 10 10v130a10 10 0 0 0 10 10"></path>
          <g class="terminal ">
            <path d="M285 181h0"></path>
            <path d="M321 181h0"></path>
            <rect x="285" y="170" width="36" height="22" rx="10" ry="10"></rect>
            <text x="303" y="185">m2</text>
          </g>
          <path d="M321 181a10 10 0 0 0 10 -10v-130a10 10 0 0 1 10 -10"></path>
          <path d="M265 31a10 10 0 0 1 10 10v160a10 10 0 0 0 10 10"></path>
          <g class="terminal ">
            <path d="M285 211h0"></path>
            <path d="M313 211h8"></path>
            <rect x="285" y="200" width="28" height="22" rx="10" ry="10"></rect>
            <text x="299" y="215">x</text>
          </g>
          <path d="M321 211a10 10 0 0 0 10 -10v-160a10 10 0 0 1 10 -10"></path>
          <path d="M265 31a10 10 0 0 1 10 10v190a10 10 0 0 0 10 10"></path>
          <g class="terminal ">
            <path d="M285 241h0"></path>
            <path d="M313 241h8"></path>
            <rect x="285" y="230" width="28" height="22" rx="10" ry="10"></rect>
            <text x="299" y="245">y</text>
          </g>
          <path d="M321 241a10 10 0 0 0 10 -10v-190a10 10 0 0 1 10 -10"></path>
        </g>
        <path d="M341 31h10"></path>
        <g class="terminal ">
          <path d="M351 31h0"></path>
          <path d="M379 31h0"></path>
          <rect x="351" y="20" width="28" height="22" rx="10" ry="10"></rect>
          <text x="365" y="35">,</text>
        </g>
        <path d="M379 31h10"></path>
        <path d="M389 31h10"></path>
        <g class="comment ">
          <path d="M399 31h0"></path>
          <path d="M437 31h0"></path>
          <text x="418" y="36" class="comment">src:</text>
        </g>
        <path d="M437 31h10"></path>
        <g>
          <path d="M447 31h0"></path>
          <path d="M523 31h0"></path>
          <path d="M447 31h20"></path>
          <g class="terminal ">
            <path d="M467 31h0"></path>
            <path d="M495 31h8"></path>
            <rect x="467" y="20" width="28" height="22" rx="10" ry="10"></rect>
            <text x="481" y="35">a</text>
          </g>
          <path d="M503 31h20"></path>
          <path d="M447 31a10 10 0 0 1 10 10v10a10 10 0 0 0 10 10"></path>
          <g class="terminal ">
            <path d="M467 61h0"></path>
            <path d="M495 61h8"></path>
            <rect x="467" y="50" width="28" height="22" rx="10" ry="10"></rect>
            <text x="481" y="65">b</text>
          </g>
          <path d="M503 61a10 10 0 0 0 10 -10v-10a10 10 0 0 1 10 -10"></path>
          <path d="M447 31a10 10 0 0 1 10 10v40a10 10 0 0 0 10 10"></path>
          <g class="terminal ">
            <path d="M467 91h0"></path>
            <path d="M495 91h8"></path>
            <rect x="467" y="80" width="28" height="22" rx="10" ry="10"></rect>
            <text x="481" y="95">c</text>
          </g>
          <path d="M503 91a10 10 0 0 0 10 -10v-40a10 10 0 0 1 10 -10"></path>
          <path d="M447 31a10 10 0 0 1 10 10v70a10 10 0 0 0 10 10"></path>
          <g class="terminal ">
            <path d="M467 121h0"></path>
            <path d="M495 121h8"></path>
            <rect x="467" y="110" width="28" height="22" rx="10" ry="10"></rect>
            <text x="481" y="125">d</text>
          </g>
          <path d="M503 121a10 10 0 0 0 10 -10v-70a10 10 0 0 1 10 -10"></path>
          <path d="M447 31a10 10 0 0 1 10 10v100a10 10 0 0 0 10 10"></path>
          <g class="terminal ">
            <path d="M467 151h0"></path>
            <path d="M503 151h0"></path>
            <rect x="467" y="140" width="36" height="22" rx="10" ry="10"></rect>
            <text x="485" y="155">m1</text>
          </g>
          <path d="M503 151a10 10 0 0 0 10 -10v-100a10 10 0 0 1 10 -10"></path>
          <path d="M447 31a10 10 0 0 1 10 10v130a10 10 0 0 0 10 10"></path>
          <g class="terminal ">
            <path d="M467 181h0"></path>
            <path d="M503 181h0"></path>
            <rect x="467" y="170" width="36" height="22" rx="10" ry="10"></rect>
            <text x="485" y="185">m2</text>
          </g>
          <path d="M503 181a10 10 0 0 0 10 -10v-130a10 10 0 0 1 10 -10"></path>
          <path d="M447 31a10 10 0 0 1 10 10v160a10 10 0 0 0 10 10"></path>
          <g class="terminal ">
            <path d="M467 211h0"></path>
            <path d="M495 211h8"></path>
            <rect x="467" y="200" width="28" height="22" rx="10" ry="10"></rect>
            <text x="481" y="215">x</text>
          </g>
          <path d="M503 211a10 10 0 0 0 10 -10v-160a10 10 0 0 1 10 -10"></path>
          <path d="M447 31a10 10 0 0 1 10 10v190a10 10 0 0 0 10 10"></path>
          <g class="terminal ">
            <path d="M467 241h0"></path>
            <path d="M495 241h8"></path>
            <rect x="467" y="230" width="28" height="22" rx="10" ry="10"></rect>
            <text x="481" y="245">y</text>
          </g>
          <path d="M503 241a10 10 0 0 0 10 -10v-190a10 10 0 0 1 10 -10"></path>
        </g>
      </g>
      <path d="M523 31h20"></path>
      <path d="M104 31a10 10 0 0 1 10 10v220a10 10 0 0 0 10 10"></path>
      <g>
        <path d="M124 271h0"></path>
        <path d="M523 271h0"></path>
        <g class="comment ">
          <path d="M124 271h0"></path>
          <path d="M190 271h0"></path>
          <text x="157" y="276" class="comment">16-bit ></text>
        </g>
        <path d="M190 271h10"></path>
        <path d="M200 271h10"></path>
        <g class="comment ">
          <path d="M210 271h0"></path>
          <path d="M255 271h0"></path>
          <text x="232.5" y="276" class="comment">dest:</text>
        </g>
        <path d="M255 271h10"></path>
        <g>
          <path d="M265 271h0"></path>
          <path d="M341 271h0"></path>
          <path d="M265 271h20"></path>
          <g class="terminal ">
            <path d="M285 271h0"></path>
            <path d="M321 271h0"></path>
            <rect x="285" y="260" width="36" height="22" rx="10" ry="10"></rect>
            <text x="303" y="275">xy</text>
          </g>
          <path d="M321 271h20"></path>
          <path d="M265 271a10 10 0 0 1 10 10v10a10 10 0 0 0 10 10"></path>
          <g class="terminal ">
            <path d="M285 301h0"></path>
            <path d="M321 301h0"></path>
            <rect x="285" y="290" width="36" height="22" rx="10" ry="10"></rect>
            <text x="303" y="305">pc</text>
          </g>
          <path d="M321 301a10 10 0 0 0 10 -10v-10a10 10 0 0 1 10 -10"></path>
        </g>
        <path d="M341 271h10"></path>
        <g class="terminal ">
          <path d="M351 271h0"></path>
          <path d="M379 271h0"></path>
          <rect x="351" y="260" width="28" height="22" rx="10" ry="10"></rect>
          <text x="365" y="275">,</text>
        </g>
        <path d="M379 271h10"></path>
        <path d="M389 271h10"></path>
        <g class="comment ">
          <path d="M399 271h0"></path>
          <path d="M437 271h0"></path>
          <text x="418" y="276" class="comment">src:</text>
        </g>
        <path d="M437 271h10"></path>
        <g>
          <path d="M447 271h0"></path>
          <path d="M523 271h0"></path>
          <path d="M447 271h20"></path>
          <g class="terminal ">
            <path d="M467 271h0"></path>
            <path d="M495 271h8"></path>
            <rect x="467" y="260" width="28" height="22" rx="10" ry="10"></rect>
            <text x="481" y="275">m</text>
          </g>
          <path d="M503 271h20"></path>
          <path d="M447 271a10 10 0 0 1 10 10v10a10 10 0 0 0 10 10"></path>
          <g class="terminal ">
            <path d="M467 301h0"></path>
            <path d="M503 301h0"></path>
            <rect x="467" y="290" width="36" height="22" rx="10" ry="10"></rect>
            <text x="485" y="305">xy</text>
          </g>
          <path d="M503 301a10 10 0 0 0 10 -10v-10a10 10 0 0 1 10 -10"></path>
          <path d="M447 271a10 10 0 0 1 10 10v40a10 10 0 0 0 10 10"></path>
          <g class="terminal ">
            <path d="M467 331h0"></path>
            <path d="M495 331h8"></path>
            <rect x="467" y="320" width="28" height="22" rx="10" ry="10"></rect>
            <text x="481" y="335">j</text>
          </g>
          <path d="M503 331a10 10 0 0 0 10 -10v-40a10 10 0 0 1 10 -10"></path>
          <path d="M447 271a10 10 0 0 1 10 10v70a10 10 0 0 0 10 10"></path>
          <g class="terminal ">
            <path d="M467 361h0"></path>
            <path d="M503 361h0"></path>
            <rect x="467" y="350" width="36" height="22" rx="10" ry="10"></rect>
            <text x="485" y="365">as</text>
          </g>
          <path d="M503 361a10 10 0 0 0 10 -10v-70a10 10 0 0 1 10 -10"></path>
        </g>
      </g>
      <path d="M523 271a10 10 0 0 0 10 -10v-220a10 10 0 0 1 10 -10"></path>
    </g>
    <path d="M 543 31 h 20 m -10 -10 v 20 m 10 -20 v 20"></path>
  </g>
</svg>

