<?xml version="1.0" encoding="UTF-8"?>
<!DOCTYPE svg PUBLIC "-//W3C//DTD SVG 1.1//EN"  "http://www.w3.org/Graphics/SVG/1.1/DTD/svg11.dtd">
<svg class="railroad-diagram" width="418" height="212" viewBox="0 0 418 212"
  xmlns="http://www.w3.org/2000/svg"
  xmlns:xlink="http://www.w3.org/1999/xlink">
  <g transform="translate(.5 .5)">
    <g>
      <path d="M20 21v20m10 -20v20m-10 -10h20"></path>
    </g>
    <g>
      <path d="M40 31h0"></path>
      <path d="M245 31h0"></path>
      <path d="M40 31h20"></path>
      <g>
        <path d="M60 31h0"></path>
        <path d="M225 31h0"></path>
        <g class="comment ">
          <path d="M60 31h0"></path>
          <path d="M161 31h0"></path>
          <text x="110.5" y="36" class="comment">bitwise and ></text>
        </g>
        <path d="M161 31h10"></path>
        <path d="M171 31h10"></path>
        <g class="terminal ">
          <path d="M181 31h0"></path>
          <path d="M225 31h0"></path>
          <rect x="181" y="20" width="44" height="22" rx="10" ry="10"></rect>
          <text x="203" y="35">and</text>
        </g>
      </g>
      <path d="M225 31h20"></path>
      <path d="M40 31a10 10 0 0 1 10 10v10a10 10 0 0 0 10 10"></path>
      <g>
        <path d="M60 61h0"></path>
        <path d="M225 61h0"></path>
        <g class="comment ">
          <path d="M60 61h0"></path>
          <path d="M161 61h0"></path>
          <text x="110.5" y="66" class="comment">bitwise or  ></text>
        </g>
        <path d="M161 61h10"></path>
        <path d="M171 61h10"></path>
        <g class="terminal ">
          <path d="M181 61h0"></path>
          <path d="M225 61h0"></path>
          <rect x="181" y="50" width="44" height="22" rx="10" ry="10"></rect>
          <text x="203" y="65">orr</text>
        </g>
      </g>
      <path d="M225 61a10 10 0 0 0 10 -10v-10a10 10 0 0 1 10 -10"></path>
      <path d="M40 31a10 10 0 0 1 10 10v40a10 10 0 0 0 10 10"></path>
      <g>
        <path d="M60 91h0"></path>
        <path d="M225 91h0"></path>
        <g class="comment ">
          <path d="M60 91h0"></path>
          <path d="M161 91h0"></path>
          <text x="110.5" y="96" class="comment">bitwise xor ></text>
        </g>
        <path d="M161 91h10"></path>
        <path d="M171 91h10"></path>
        <g class="terminal ">
          <path d="M181 91h0"></path>
          <path d="M225 91h0"></path>
          <rect x="181" y="80" width="44" height="22" rx="10" ry="10"></rect>
          <text x="203" y="95">eor</text>
        </g>
      </g>
      <path d="M225 91a10 10 0 0 0 10 -10v-40a10 10 0 0 1 10 -10"></path>
      <path d="M40 31a10 10 0 0 1 10 10v70a10 10 0 0 0 10 10"></path>
      <g>
        <path d="M60 121h0"></path>
        <path d="M225 121h0"></path>
        <g class="comment ">
          <path d="M60 121h0"></path>
          <path d="M161 121h0"></path>
          <text x="110.5" y="126" class="comment">compare B-C ></text>
        </g>
        <path d="M161 121h10"></path>
        <path d="M171 121h10"></path>
        <g class="terminal ">
          <path d="M181 121h0"></path>
          <path d="M225 121h0"></path>
          <rect x="181" y="110" width="44" height="22" rx="10" ry="10"></rect>
          <text x="203" y="125">cmp</text>
        </g>
      </g>
      <path d="M225 121a10 10 0 0 0 10 -10v-70a10 10 0 0 1 10 -10"></path>
      <path d="M40 31a10 10 0 0 1 10 10v100a10 10 0 0 0 10 10"></path>
      <g>
        <path d="M60 151h0"></path>
        <path d="M225 151h0"></path>
        <g class="comment ">
          <path d="M60 151h0"></path>
          <path d="M161 151h0"></path>
          <text x="110.5" y="156" class="comment">bitwise not ></text>
        </g>
        <path d="M161 151h10"></path>
        <path d="M171 151h10"></path>
        <g class="terminal ">
          <path d="M181 151h0"></path>
          <path d="M225 151h0"></path>
          <rect x="181" y="140" width="44" height="22" rx="10" ry="10"></rect>
          <text x="203" y="155">not</text>
        </g>
      </g>
      <path d="M225 151a10 10 0 0 0 10 -10v-100a10 10 0 0 1 10 -10"></path>
      <path d="M40 31a10 10 0 0 1 10 10v130a10 10 0 0 0 10 10"></path>
      <g>
        <path d="M60 181h0"></path>
        <path d="M225 181h0"></path>
        <g class="comment ">
          <path d="M60 181h0"></path>
          <path d="M161 181h0"></path>
          <text x="110.5" y="186" class="comment">rotate left ></text>
        </g>
        <path d="M161 181h10"></path>
        <path d="M171 181h10"></path>
        <g class="terminal ">
          <path d="M181 181h0"></path>
          <path d="M225 181h0"></path>
          <rect x="181" y="170" width="44" height="22" rx="10" ry="10"></rect>
          <text x="203" y="185">rol</text>
        </g>
      </g>
      <path d="M225 181a10 10 0 0 0 10 -10v-130a10 10 0 0 1 10 -10"></path>
    </g>
    <path d="M245 31h10"></path>
    <g class="comment ">
      <path d="M255 31h0"></path>
      <path d="M300 31h0"></path>
      <text x="277.5" y="36" class="comment">dest:</text>
    </g>
    <path d="M300 31h10"></path>
    <g>
      <path d="M310 31h0"></path>
      <path d="M378 31h0"></path>
      <path d="M310 31h20"></path>
      <g>
        <path d="M330 31h28"></path>
      </g>
      <path d="M358 31h20"></path>
      <path d="M310 31a10 10 0 0 1 10 10v0a10 10 0 0 0 10 10"></path>
      <g class="terminal ">
        <path d="M330 51h0"></path>
        <path d="M358 51h0"></path>
        <rect x="330" y="40" width="28" height="22" rx="10" ry="10"></rect>
        <text x="344" y="55">a</text>
      </g>
      <path d="M358 51a10 10 0 0 0 10 -10v0a10 10 0 0 1 10 -10"></path>
      <path d="M310 31a10 10 0 0 1 10 10v30a10 10 0 0 0 10 10"></path>
      <g class="terminal ">
        <path d="M330 81h0"></path>
        <path d="M358 81h0"></path>
        <rect x="330" y="70" width="28" height="22" rx="10" ry="10"></rect>
        <text x="344" y="85">d</text>
      </g>
      <path d="M358 81a10 10 0 0 0 10 -10v-30a10 10 0 0 1 10 -10"></path>
    </g>
    <path d="M 378 31 h 20 m -10 -10 v 20 m 10 -20 v 20"></path>
  </g>
</svg>
