<?xml version="1.0" encoding="UTF-8"?>
<!DOCTYPE svg PUBLIC "-//W3C//DTD SVG 1.1//EN"  "http://www.w3.org/Graphics/SVG/1.1/DTD/svg11.dtd">
<svg xmlns="http://www.w3.org/2000/svg" version="1.1" class="railroad-diagram" width="401" height="92" viewBox="0 0 401 92">
    <g transform="translate(.5 .5)">
        <g>
            <path d="M20 21v20m10 -20v20m-10 -10h20"/>
        </g>
        <path d="M40 31h10"/>
        <g class="terminal">
            <path d="M50 31h0"/>
            <path d="M95.5 31h0"/>
            <rect x="50" y="20" width="45.5" height="22" rx="10" ry="10"/>
            <text x="72.75" y="35">
                opc
            </text>
        </g>
        <path d="M95.5 31h10"/>
        <g>
            <path d="M105.5 31h0"/>
            <path d="M361 31h0"/>
            <path d="M105.5 31h20"/>
            <g class="non-terminal">
                <path d="M125.5 31h0"/>
                <path d="M341 31h0"/>
                <rect x="125.5" y="20" width="215.5" height="22"/>
                <text x="233.25" y="35">
                    Hex opcode (0x00..0xFF)
                </text>
            </g>
            <path d="M341 31h20"/>
            <path d="M105.5 31a10 10 0 0 1 10 10v10a10 10 0 0 0 10 10"/>
            <g class="non-terminal">
                <path d="M125.5 61h0"/>
                <path d="M341 61h0"/>
                <rect x="125.5" y="50" width="215.5" height="22"/>
                <text x="233.25" y="65">
                    Binary opcode
                </text>
            </g>
            <path d="M341 61a10 10 0 0 0 10 -10v-10a10 10 0 0 1 10 -10"/>
        </g>
        <path d="M 361 31 h 20 m -10 -10 v 20 m 10 -20 v 20"/>
    </g>
</svg>
