<?xml version="1.0" encoding="UTF-8"?>
<!DOCTYPE svg PUBLIC "-//W3C//DTD SVG 1.1//EN"  "http://www.w3.org/Graphics/SVG/1.1/DTD/svg11.dtd">
<svg class="railroad-diagram" width="685" height="152" viewBox="0 0 685 152"
  xmlns="http://www.w3.org/2000/svg"
  xmlns:xlink="http://www.w3.org/1999/xlink">
  <g transform="translate(.5 .5)">
    <g>
      <path d="M20 21v20m10 -20v20m-10 -10h20"></path>
    </g>
    <path d="M40 31h10"></path>
    <g class="terminal ">
      <path d="M50 31h0"></path>
      <path d="M94 31h0"></path>
      <rect x="50" y="20" width="44" height="22" rx="10" ry="10"></rect>
      <text x="72" y="35">ldi</text>
    </g>
    <path d="M94 31h10"></path>
    <g>
      <path d="M104 31h0"></path>
      <path d="M645 31h0"></path>
      <path d="M104 31h20"></path>
      <g>
        <path d="M124 31h0"></path>
        <path d="M539 31h86"></path>
        <g class="comment ">
          <path d="M124 31h0"></path>
          <path d="M190 31h0"></path>
          <text x="157" y="36" class="comment">08-bit ></text>
        </g>
        <path d="M190 31h10"></path>
        <path d="M200 31h10"></path>
        <g class="comment ">
          <path d="M210 31h0"></path>
          <path d="M255 31h0"></path>
          <text x="232.5" y="36" class="comment">dest:</text>
        </g>
        <path d="M255 31h10"></path>
        <g>
          <path d="M265 31h0"></path>
          <path d="M333 31h0"></path>
          <path d="M265 31h20"></path>
          <g class="terminal ">
            <path d="M285 31h0"></path>
            <path d="M313 31h0"></path>
            <rect x="285" y="20" width="28" height="22" rx="10" ry="10"></rect>
            <text x="299" y="35">a</text>
          </g>
          <path d="M313 31h20"></path>
          <path d="M265 31a10 10 0 0 1 10 10v10a10 10 0 0 0 10 10"></path>
          <g class="terminal ">
            <path d="M285 61h0"></path>
            <path d="M313 61h0"></path>
            <rect x="285" y="50" width="28" height="22" rx="10" ry="10"></rect>
            <text x="299" y="65">b</text>
          </g>
          <path d="M313 61a10 10 0 0 0 10 -10v-10a10 10 0 0 1 10 -10"></path>
        </g>
        <path d="M333 31h10"></path>
        <g class="terminal ">
          <path d="M343 31h0"></path>
          <path d="M371 31h0"></path>
          <rect x="343" y="20" width="28" height="22" rx="10" ry="10"></rect>
          <text x="357" y="35">,</text>
        </g>
        <path d="M371 31h10"></path>
        <path d="M381 31h10"></path>
        <g class="comment ">
          <path d="M391 31h0"></path>
          <path d="M443 31h0"></path>
          <text x="417" y="36" class="comment">value:</text>
        </g>
        <path d="M443 31h10"></path>
        <path d="M453 31h10"></path>
        <g class="non-terminal ">
          <path d="M463 31h0"></path>
          <path d="M539 31h0"></path>
          <rect x="463" y="20" width="76" height="22"></rect>
          <text x="501" y="35">-16..15</text>
        </g>
      </g>
      <path d="M625 31h20"></path>
      <path d="M104 31a10 10 0 0 1 10 10v40a10 10 0 0 0 10 10"></path>
      <g>
        <path d="M124 91h0"></path>
        <path d="M625 91h0"></path>
        <g class="comment ">
          <path d="M124 91h0"></path>
          <path d="M190 91h0"></path>
          <text x="157" y="96" class="comment">16-bit ></text>
        </g>
        <path d="M190 91h10"></path>
        <path d="M200 91h10"></path>
        <g class="comment ">
          <path d="M210 91h0"></path>
          <path d="M255 91h0"></path>
          <text x="232.5" y="96" class="comment">dest:</text>
        </g>
        <path d="M255 91h10"></path>
        <g>
          <path d="M265 91h0"></path>
          <path d="M333 91h0"></path>
          <path d="M265 91h20"></path>
          <g class="terminal ">
            <path d="M285 91h0"></path>
            <path d="M313 91h0"></path>
            <rect x="285" y="80" width="28" height="22" rx="10" ry="10"></rect>
            <text x="299" y="95">m</text>
          </g>
          <path d="M313 91h20"></path>
          <path d="M265 91a10 10 0 0 1 10 10v10a10 10 0 0 0 10 10"></path>
          <g class="terminal ">
            <path d="M285 121h0"></path>
            <path d="M313 121h0"></path>
            <rect x="285" y="110" width="28" height="22" rx="10" ry="10"></rect>
            <text x="299" y="125">j</text>
          </g>
          <path d="M313 121a10 10 0 0 0 10 -10v-10a10 10 0 0 1 10 -10"></path>
        </g>
        <path d="M333 91h10"></path>
        <g class="terminal ">
          <path d="M343 91h0"></path>
          <path d="M371 91h0"></path>
          <rect x="343" y="80" width="28" height="22" rx="10" ry="10"></rect>
          <text x="357" y="95">,</text>
        </g>
        <path d="M371 91h10"></path>
        <path d="M381 91h10"></path>
        <g class="comment ">
          <path d="M391 91h0"></path>
          <path d="M443 91h0"></path>
          <text x="417" y="96" class="comment">value:</text>
        </g>
        <path d="M443 91h10"></path>
        <g>
          <path d="M453 91h0"></path>
          <path d="M625 91h0"></path>
          <path d="M453 91h20"></path>
          <g class="non-terminal ">
            <path d="M473 91h0"></path>
            <path d="M605 91h0"></path>
            <rect x="473" y="80" width="132" height="22"></rect>
            <text x="539" y="95">0x0000..0xFFFF</text>
          </g>
          <path d="M605 91h20"></path>
          <path d="M453 91a10 10 0 0 1 10 10v10a10 10 0 0 0 10 10"></path>
          <g class="non-terminal ">
            <path d="M473 121h0"></path>
            <path d="M533 121h72"></path>
            <rect x="473" y="110" width="60" height="22"></rect>
            <text x="503" y="125">label</text>
          </g>
          <path d="M605 121a10 10 0 0 0 10 -10v-10a10 10 0 0 1 10 -10"></path>
        </g>
      </g>
      <path d="M625 91a10 10 0 0 0 10 -10v-40a10 10 0 0 1 10 -10"></path>
    </g>
    <path d="M 645 31 h 20 m -10 -10 v 20 m 10 -20 v 20"></path>
  </g>
</svg>
