<?xml version="1.0" encoding="UTF-8"?>
<!DOCTYPE svg PUBLIC "-//W3C//DTD SVG 1.1//EN"  "http://www.w3.org/Graphics/SVG/1.1/DTD/svg11.dtd">
<svg class="railroad-diagram" width="404" height="112" viewBox="0 0 404 112"
  xmlns="http://www.w3.org/2000/svg"
  xmlns:xlink="http://www.w3.org/1999/xlink">
  <g transform="translate(.5 .5)">
    <g>
      <path d="M20 21v20m10 -20v20m-10 -10h20"></path>
    </g>
    <g>
      <path d="M40 31h0"></path>
      <path d="M231 31h0"></path>
      <path d="M40 31h20"></path>
      <g>
        <path d="M60 31h0"></path>
        <path d="M211 31h0"></path>
        <g class="comment ">
          <path d="M60 31h0"></path>
          <path d="M147 31h0"></path>
          <text x="103.5" y="36" class="comment">addition ></text>
        </g>
        <path d="M147 31h10"></path>
        <path d="M157 31h10"></path>
        <g class="terminal ">
          <path d="M167 31h0"></path>
          <path d="M211 31h0"></path>
          <rect x="167" y="20" width="44" height="22" rx="10" ry="10"></rect>
          <text x="189" y="35">add</text>
        </g>
      </g>
      <path d="M211 31h20"></path>
      <path d="M40 31a10 10 0 0 1 10 10v10a10 10 0 0 0 10 10"></path>
      <g>
        <path d="M60 61h0"></path>
        <path d="M211 61h0"></path>
        <g class="comment ">
          <path d="M60 61h0"></path>
          <path d="M147 61h0"></path>
          <text x="103.5" y="66" class="comment">increment ></text>
        </g>
        <path d="M147 61h10"></path>
        <path d="M157 61h10"></path>
        <g class="terminal ">
          <path d="M167 61h0"></path>
          <path d="M211 61h0"></path>
          <rect x="167" y="50" width="44" height="22" rx="10" ry="10"></rect>
          <text x="189" y="65">inc</text>
        </g>
      </g>
      <path d="M211 61a10 10 0 0 0 10 -10v-10a10 10 0 0 1 10 -10"></path>
    </g>
    <path d="M231 31h10"></path>
    <g class="comment ">
      <path d="M241 31h0"></path>
      <path d="M286 31h0"></path>
      <text x="263.5" y="36" class="comment">dest:</text>
    </g>
    <path d="M286 31h10"></path>
    <g>
      <path d="M296 31h0"></path>
      <path d="M364 31h0"></path>
      <path d="M296 31h20"></path>
      <g>
        <path d="M316 31h28"></path>
      </g>
      <path d="M344 31h20"></path>
      <path d="M296 31a10 10 0 0 1 10 10v0a10 10 0 0 0 10 10"></path>
      <g class="terminal ">
        <path d="M316 51h0"></path>
        <path d="M344 51h0"></path>
        <rect x="316" y="40" width="28" height="22" rx="10" ry="10"></rect>
        <text x="330" y="55">a</text>
      </g>
      <path d="M344 51a10 10 0 0 0 10 -10v0a10 10 0 0 1 10 -10"></path>
      <path d="M296 31a10 10 0 0 1 10 10v30a10 10 0 0 0 10 10"></path>
      <g class="terminal ">
        <path d="M316 81h0"></path>
        <path d="M344 81h0"></path>
        <rect x="316" y="70" width="28" height="22" rx="10" ry="10"></rect>
        <text x="330" y="85">d</text>
      </g>
      <path d="M344 81a10 10 0 0 0 10 -10v-30a10 10 0 0 1 10 -10"></path>
    </g>
    <path d="M 364 31 h 20 m -10 -10 v 20 m 10 -20 v 20"></path>
  </g>
</svg>
