<?xml version="1.0" encoding="UTF-8"?>
<!DOCTYPE svg PUBLIC "-//W3C//DTD SVG 1.1//EN"  "http://www.w3.org/Graphics/SVG/1.1/DTD/svg11.dtd">
<svg class="railroad-diagram" width="329" height="272" viewBox="0 0 329 272"
  xmlns="http://www.w3.org/2000/svg"
  xmlns:xlink="http://www.w3.org/1999/xlink">
  <g transform="translate(.5 .5)">
    <g>
      <path d="M20 21v20m10 -20v20m-10 -10h20"></path>
    </g>
    <path d="M40 31h10"></path>
    <g class="terminal ">
      <path d="M50 31h0"></path>
      <path d="M94 31h0"></path>
      <rect x="50" y="20" width="44" height="22" rx="10" ry="10"></rect>
      <text x="72" y="35">clr</text>
    </g>
    <path d="M94 31h10"></path>
    <g>
      <path d="M104 31h0"></path>
      <path d="M289 31h0"></path>
      <path d="M104 31h20"></path>
      <g>
        <path d="M124 31h0"></path>
        <path d="M269 31h0"></path>
        <g class="comment ">
          <path d="M124 31h0"></path>
          <path d="M183 31h0"></path>
          <text x="153.5" y="36" class="comment">target:</text>
        </g>
        <path d="M183 31h10"></path>
        <g>
          <path d="M193 31h0"></path>
          <path d="M269 31h0"></path>
          <path d="M193 31h20"></path>
          <g class="terminal ">
            <path d="M213 31h0"></path>
            <path d="M241 31h8"></path>
            <rect x="213" y="20" width="28" height="22" rx="10" ry="10"></rect>
            <text x="227" y="35">a</text>
          </g>
          <path d="M249 31h20"></path>
          <path d="M193 31a10 10 0 0 1 10 10v10a10 10 0 0 0 10 10"></path>
          <g class="terminal ">
            <path d="M213 61h0"></path>
            <path d="M241 61h8"></path>
            <rect x="213" y="50" width="28" height="22" rx="10" ry="10"></rect>
            <text x="227" y="65">b</text>
          </g>
          <path d="M249 61a10 10 0 0 0 10 -10v-10a10 10 0 0 1 10 -10"></path>
          <path d="M193 31a10 10 0 0 1 10 10v40a10 10 0 0 0 10 10"></path>
          <g class="terminal ">
            <path d="M213 91h0"></path>
            <path d="M241 91h8"></path>
            <rect x="213" y="80" width="28" height="22" rx="10" ry="10"></rect>
            <text x="227" y="95">c</text>
          </g>
          <path d="M249 91a10 10 0 0 0 10 -10v-40a10 10 0 0 1 10 -10"></path>
          <path d="M193 31a10 10 0 0 1 10 10v70a10 10 0 0 0 10 10"></path>
          <g class="terminal ">
            <path d="M213 121h0"></path>
            <path d="M241 121h8"></path>
            <rect x="213" y="110" width="28" height="22" rx="10" ry="10"></rect>
            <text x="227" y="125">d</text>
          </g>
          <path d="M249 121a10 10 0 0 0 10 -10v-70a10 10 0 0 1 10 -10"></path>
          <path d="M193 31a10 10 0 0 1 10 10v100a10 10 0 0 0 10 10"></path>
          <g class="terminal ">
            <path d="M213 151h0"></path>
            <path d="M249 151h0"></path>
            <rect x="213" y="140" width="36" height="22" rx="10" ry="10"></rect>
            <text x="231" y="155">m1</text>
          </g>
          <path d="M249 151a10 10 0 0 0 10 -10v-100a10 10 0 0 1 10 -10"></path>
          <path d="M193 31a10 10 0 0 1 10 10v130a10 10 0 0 0 10 10"></path>
          <g class="terminal ">
            <path d="M213 181h0"></path>
            <path d="M249 181h0"></path>
            <rect x="213" y="170" width="36" height="22" rx="10" ry="10"></rect>
            <text x="231" y="185">m2</text>
          </g>
          <path d="M249 181a10 10 0 0 0 10 -10v-130a10 10 0 0 1 10 -10"></path>
          <path d="M193 31a10 10 0 0 1 10 10v160a10 10 0 0 0 10 10"></path>
          <g class="terminal ">
            <path d="M213 211h0"></path>
            <path d="M241 211h8"></path>
            <rect x="213" y="200" width="28" height="22" rx="10" ry="10"></rect>
            <text x="227" y="215">x</text>
          </g>
          <path d="M249 211a10 10 0 0 0 10 -10v-160a10 10 0 0 1 10 -10"></path>
          <path d="M193 31a10 10 0 0 1 10 10v190a10 10 0 0 0 10 10"></path>
          <g class="terminal ">
            <path d="M213 241h0"></path>
            <path d="M241 241h8"></path>
            <rect x="213" y="230" width="28" height="22" rx="10" ry="10"></rect>
            <text x="227" y="245">y</text>
          </g>
          <path d="M249 241a10 10 0 0 0 10 -10v-190a10 10 0 0 1 10 -10"></path>
        </g>
      </g>
      <path d="M269 31h20"></path>
    </g>
    <path d="M 289 31 h 20 m -10 -10 v 20 m 10 -20 v 20"></path>
  </g>
</svg>
