<?xml version="1.0" encoding="UTF-8"?>
<!DOCTYPE svg PUBLIC "-//W3C//DTD SVG 1.1//EN"  "http://www.w3.org/Graphics/SVG/1.1/DTD/svg11.dtd">
<svg xmlns="http://www.w3.org/2000/svg" version="1.1" class="railroad-diagram" width="254" height="152" viewBox="0 0 254 152">
    <g transform="translate(.5 .5)">
        <g>
            <path d="M20 21v20m10 -20v20m-10 -10h20"/>
        </g>
        <path d="M40 31h10"/>
        <g class="terminal">
            <path d="M50 31h0"/>
            <path d="M95.5 31h0"/>
            <rect x="50" y="20" width="45.5" height="22" rx="10" ry="10"/>
            <text x="72.75" y="35">
                clr
            </text>
        </g>
        <path d="M95.5 31h10"/>
        <g>
            <path d="M105.5 31h0"/>
            <path d="M214 31h0"/>
            <path d="M105.5 31h20"/>
            <g>
                <path d="M125.5 31h0"/>
                <path d="M194 31h0"/>
                <g>
                    <path d="M125.5 31h0"/>
                    <path d="M194 31h0"/>
                    <path d="M125.5 31h20"/>
                    <g class="terminal">
                        <path d="M145.5 31h0"/>
                        <path d="M174 31h0"/>
                        <rect x="145.5" y="20" width="28.5" height="22" rx="10" ry="10"/>
                        <text x="159.75" y="35">
                            a
                        </text>
                    </g>
                    <path d="M174 31h20"/>
                    <path d="M125.5 31a10 10 0 0 1 10 10v10a10 10 0 0 0 10 10"/>
                    <g class="terminal">
                        <path d="M145.5 61h0"/>
                        <path d="M174 61h0"/>
                        <rect x="145.5" y="50" width="28.5" height="22" rx="10" ry="10"/>
                        <text x="159.75" y="65">
                            b
                        </text>
                    </g>
                    <path d="M174 61a10 10 0 0 0 10 -10v-10a10 10 0 0 1 10 -10"/>
                    <path d="M125.5 31a10 10 0 0 1 10 10v40a10 10 0 0 0 10 10"/>
                    <g class="terminal">
                        <path d="M145.5 91h0"/>
                        <path d="M174 91h0"/>
                        <rect x="145.5" y="80" width="28.5" height="22" rx="10" ry="10"/>
                        <text x="159.75" y="95">
                            c
                        </text>
                    </g>
                    <path d="M174 91a10 10 0 0 0 10 -10v-40a10 10 0 0 1 10 -10"/>
                    <path d="M125.5 31a10 10 0 0 1 10 10v70a10 10 0 0 0 10 10"/>
                    <g class="terminal">
                        <path d="M145.5 121h0"/>
                        <path d="M174 121h0"/>
                        <rect x="145.5" y="110" width="28.5" height="22" rx="10" ry="10"/>
                        <text x="159.75" y="125">
                            d
                        </text>
                    </g>
                    <path d="M174 121a10 10 0 0 0 10 -10v-70a10 10 0 0 1 10 -10"/>
                </g>
            </g>
            <path d="M194 31h20"/>
        </g>
        <path d="M 214 31 h 20 m -10 -10 v 20 m 10 -20 v 20"/>
    </g>
</svg>
