<?xml version="1.0" encoding="UTF-8"?>
<!DOCTYPE svg PUBLIC "-//W3C//DTD SVG 1.1//EN"  "http://www.w3.org/Graphics/SVG/1.1/DTD/svg11.dtd">
<svg class="railroad-diagram" width="415" height="302" viewBox="0 0 415 302"
  xmlns="http://www.w3.org/2000/svg"
  xmlns:xlink="http://www.w3.org/1999/xlink">
  <g transform="translate(.5 .5)">
    <g>
      <path d="M20 21v20m10 -20v20m-10 -10h20"></path>
    </g>
    <path d="M40 31h10"></path>
    <g class="terminal ">
      <path d="M50 31h0"></path>
      <path d="M94 31h0"></path>
      <rect x="50" y="20" width="44" height="22" rx="10" ry="10"></rect>
      <text x="72" y="35">clr</text>
    </g>
    <path d="M94 31h10"></path>
    <g>
      <path d="M104 31h0"></path>
      <path d="M375 31h0"></path>
      <path d="M104 31h20"></path>
      <g>
        <path d="M124 31h0"></path>
        <path d="M355 31h0"></path>
        <g class="comment ">
          <path d="M124 31h0"></path>
          <path d="M190 31h0"></path>
          <text x="157" y="36" class="comment">08-bit ></text>
        </g>
        <path d="M190 31h10"></path>
        <path d="M200 31h10"></path>
        <g class="comment ">
          <path d="M210 31h0"></path>
          <path d="M269 31h0"></path>
          <text x="239.5" y="36" class="comment">target:</text>
        </g>
        <path d="M269 31h10"></path>
        <g>
          <path d="M279 31h0"></path>
          <path d="M355 31h0"></path>
          <path d="M279 31h20"></path>
          <g class="terminal ">
            <path d="M299 31h4"></path>
            <path d="M331 31h4"></path>
            <rect x="303" y="20" width="28" height="22" rx="10" ry="10"></rect>
            <text x="317" y="35">a</text>
          </g>
          <path d="M335 31h20"></path>
          <path d="M279 31a10 10 0 0 1 10 10v10a10 10 0 0 0 10 10"></path>
          <g class="terminal ">
            <path d="M299 61h4"></path>
            <path d="M331 61h4"></path>
            <rect x="303" y="50" width="28" height="22" rx="10" ry="10"></rect>
            <text x="317" y="65">b</text>
          </g>
          <path d="M335 61a10 10 0 0 0 10 -10v-10a10 10 0 0 1 10 -10"></path>
          <path d="M279 31a10 10 0 0 1 10 10v40a10 10 0 0 0 10 10"></path>
          <g class="terminal ">
            <path d="M299 91h4"></path>
            <path d="M331 91h4"></path>
            <rect x="303" y="80" width="28" height="22" rx="10" ry="10"></rect>
            <text x="317" y="95">c</text>
          </g>
          <path d="M335 91a10 10 0 0 0 10 -10v-40a10 10 0 0 1 10 -10"></path>
          <path d="M279 31a10 10 0 0 1 10 10v70a10 10 0 0 0 10 10"></path>
          <g class="terminal ">
            <path d="M299 121h4"></path>
            <path d="M331 121h4"></path>
            <rect x="303" y="110" width="28" height="22" rx="10" ry="10"></rect>
            <text x="317" y="125">d</text>
          </g>
          <path d="M335 121a10 10 0 0 0 10 -10v-70a10 10 0 0 1 10 -10"></path>
          <path d="M279 31a10 10 0 0 1 10 10v100a10 10 0 0 0 10 10"></path>
          <g class="terminal ">
            <path d="M299 151h0"></path>
            <path d="M335 151h0"></path>
            <rect x="299" y="140" width="36" height="22" rx="10" ry="10"></rect>
            <text x="317" y="155">m1</text>
          </g>
          <path d="M335 151a10 10 0 0 0 10 -10v-100a10 10 0 0 1 10 -10"></path>
          <path d="M279 31a10 10 0 0 1 10 10v130a10 10 0 0 0 10 10"></path>
          <g class="terminal ">
            <path d="M299 181h0"></path>
            <path d="M335 181h0"></path>
            <rect x="299" y="170" width="36" height="22" rx="10" ry="10"></rect>
            <text x="317" y="185">m2</text>
          </g>
          <path d="M335 181a10 10 0 0 0 10 -10v-130a10 10 0 0 1 10 -10"></path>
          <path d="M279 31a10 10 0 0 1 10 10v160a10 10 0 0 0 10 10"></path>
          <g class="terminal ">
            <path d="M299 211h4"></path>
            <path d="M331 211h4"></path>
            <rect x="303" y="200" width="28" height="22" rx="10" ry="10"></rect>
            <text x="317" y="215">x</text>
          </g>
          <path d="M335 211a10 10 0 0 0 10 -10v-160a10 10 0 0 1 10 -10"></path>
          <path d="M279 31a10 10 0 0 1 10 10v190a10 10 0 0 0 10 10"></path>
          <g class="terminal ">
            <path d="M299 241h4"></path>
            <path d="M331 241h4"></path>
            <rect x="303" y="230" width="28" height="22" rx="10" ry="10"></rect>
            <text x="317" y="245">y</text>
          </g>
          <path d="M335 241a10 10 0 0 0 10 -10v-190a10 10 0 0 1 10 -10"></path>
        </g>
      </g>
      <path d="M355 31h20"></path>
      <path d="M104 31a10 10 0 0 1 10 10v220a10 10 0 0 0 10 10"></path>
      <g>
        <path d="M124 271h15"></path>
        <path d="M340 271h15"></path>
        <g class="comment ">
          <path d="M139 271h0"></path>
          <path d="M205 271h0"></path>
          <text x="172" y="276" class="comment">16-bit ></text>
        </g>
        <path d="M205 271h10"></path>
        <path d="M215 271h10"></path>
        <g class="comment ">
          <path d="M225 271h0"></path>
          <path d="M284 271h0"></path>
          <text x="254.5" y="276" class="comment">target:</text>
        </g>
        <path d="M284 271h10"></path>
        <path d="M294 271h10"></path>
        <g class="terminal ">
          <path d="M304 271h0"></path>
          <path d="M340 271h0"></path>
          <rect x="304" y="260" width="36" height="22" rx="10" ry="10"></rect>
          <text x="322" y="275">xy</text>
        </g>
      </g>
      <path d="M355 271a10 10 0 0 0 10 -10v-220a10 10 0 0 1 10 -10"></path>
    </g>
    <path d="M 375 31 h 20 m -10 -10 v 20 m 10 -20 v 20"></path>
  </g>
</svg>
