<?xml version="1.0" encoding="UTF-8"?>
<!DOCTYPE svg PUBLIC "-//W3C//DTD SVG 1.1//EN"  "http://www.w3.org/Graphics/SVG/1.1/DTD/svg11.dtd">
<svg xmlns="http://www.w3.org/2000/svg" version="1.1" class="railroad-diagram" width="432" height="112" viewBox="0 0 432 112">
    <g transform="translate(.5 .5)">
        <g>
            <path d="M20 21v20m10 -20v20m-10 -10h20"/>
        </g>
        <g>
            <path d="M40 31h0"/>
            <path d="M392 31h0"/>
            <path d="M40 31h20"/>
            <g>
                <path d="M60 31h0"/>
                <path d="M372 31h0"/>
                <g>
                    <path d="M60 31h0"/>
                    <path d="M238.5 31h0"/>
                    <path d="M60 31h20"/>
                    <g>
                        <path d="M80 31h0"/>
                        <path d="M218.5 31h0"/>
                        <g>
                            <path d="M80 31h0"/>
                            <path d="M153 31h0"/>
                            <text x="116.5" y="36" class="comment">
                                addition
                            </text>
                        </g>
                        <path d="M153 31h10"/>
                        <path d="M163 31h10"/>
                        <g class="terminal">
                            <path d="M173 31h0"/>
                            <path d="M218.5 31h0"/>
                            <rect x="173" y="20" width="45.5" height="22" rx="10" ry="10"/>
                            <text x="195.75" y="35">
                                add
                            </text>
                        </g>
                    </g>
                    <path d="M218.5 31h20"/>
                    <path d="M60 31a10 10 0 0 1 10 10v10a10 10 0 0 0 10 10"/>
                    <g>
                        <path d="M80 61h0"/>
                        <path d="M218.5 61h0"/>
                        <g>
                            <path d="M80 61h0"/>
                            <path d="M153 61h0"/>
                            <text x="116.5" y="66" class="comment">
                                increment
                            </text>
                        </g>
                        <path d="M153 61h10"/>
                        <path d="M163 61h10"/>
                        <g class="terminal">
                            <path d="M173 61h0"/>
                            <path d="M218.5 61h0"/>
                            <rect x="173" y="50" width="45.5" height="22" rx="10" ry="10"/>
                            <text x="195.75" y="65">
                                inc
                            </text>
                        </g>
                    </g>
                    <path d="M218.5 61a10 10 0 0 0 10 -10v-10a10 10 0 0 1 10 -10"/>
                </g>
                <path d="M238.5 31h10"/>
                <g>
                    <path d="M248.5 31h0"/>
                    <path d="M293.5 31h0"/>
                    <text x="271" y="36" class="comment">
                        dest:
                    </text>
                </g>
                <path d="M293.5 31h10"/>
                <g>
                    <path d="M303.5 31h0"/>
                    <path d="M372 31h0"/>
                    <path d="M303.5 31h20"/>
                    <g>
                        <path d="M323.5 31h28.5"/>
                    </g>
                    <path d="M352 31h20"/>
                    <path d="M303.5 31a10 10 0 0 1 10 10v0a10 10 0 0 0 10 10"/>
                    <g class="terminal">
                        <path d="M323.5 51h0"/>
                        <path d="M352 51h0"/>
                        <rect x="323.5" y="40" width="28.5" height="22" rx="10" ry="10"/>
                        <text x="337.75" y="55">
                            a
                        </text>
                    </g>
                    <path d="M352 51a10 10 0 0 0 10 -10v0a10 10 0 0 1 10 -10"/>
                    <path d="M303.5 31a10 10 0 0 1 10 10v30a10 10 0 0 0 10 10"/>
                    <g class="terminal">
                        <path d="M323.5 81h0"/>
                        <path d="M352 81h0"/>
                        <rect x="323.5" y="70" width="28.5" height="22" rx="10" ry="10"/>
                        <text x="337.75" y="85">
                            d
                        </text>
                    </g>
                    <path d="M352 81a10 10 0 0 0 10 -10v-30a10 10 0 0 1 10 -10"/>
                </g>
            </g>
            <path d="M372 31h20"/>
        </g>
        <path d="M 392 31 h 20 m -10 -10 v 20 m 10 -20 v 20"/>
    </g>
</svg>
